<?xml version="1.0" encoding="UTF-8"?>
<!-- Generator: visioncortex VTracer 1.0.0-alpha.4 -->
<svg version="1.1" xmlns="http://www.w3.org/2000/svg" width="722" height="724">
<path d="M326,36c12.8-7.2,60.1-1.6,74,3c34.4,8.9,71.7,15.3,103,34c79.8,47.7,143.7,117.3,164.9,210c5.2,22.9,11.5,46.1,11.1,70c2.7,9.5,3.7,38.3,0,47c-.3,0-.7,0-1,0c-5.8,17.5-5.9,40-11.2,58.7C653.7,505.8,628.6,542.4,600,581c-.3,4.6-21.4,27-26,27c-40,29.2-73,55.1-120.7,70.7c-5.5,1.8-29.7,6.7-32.3,9.3c-13.3,7.4-37.1,7.2-52,7c-33.4,.1-66.8-.6-99.4-9C125.8,648.7,18.8,514.8,20,365c-.1-12.4-.2-27,3-39c0-27,12.7-55.8,21-81C71,163.1,155.9,82.2,238,55c29.4-9.8,57.2-14.6,88-19ZM0,724c240.7,0,481.3,0,722,0c0-241.3,0-482.7,0-724C481.3,0,240.7,0,0,0C0,241.3,0,482.7,0,724Z" fill="#FCFDFD"/>
<path d="M400,39c-13.9-4.6-61.2-10.2-74-3c24.9-.1,49.6,3,74,3Z" fill="#EBF4F3"/>
<g fill="#347149">
<path d="M400,39c-24.4,0-49.1-3.1-74-3c-30.8,4.4-58.6,9.2-88,19C155.9,82.2,71,163.1,44,245c-8.3,25.2-21,54-21,81c.2,11.3,2.2,28.6-3,39C18.8,514.8,125.8,648.7,269.6,686c32.6,8.4,66,9.1,99.4,9c0-.3,0-.7,0-1c17.8,.3,34.5-4.4,52-6c2.6-2.6,26.8-7.5,32.3-9.3C501,663.1,534,637.2,574,608c0-1,23.1-24.2,26-27c28.6-38.6,53.7-75.2,66.8-122.3c5.3-18.7,5.4-41.2,11.2-58.7c0-15.5,1.1-31.3,1-47c.4-23.9-5.9-47.1-11.1-70C646.7,190.3,582.8,120.7,503,73c-31.3-18.7-68.6-25.1-103-34ZM330,65c0-.3,0-.7,0-1c36.2-.2,71.4,1.6,106,12.2c195.2,59.9,277.7,295.2,161,462.6c-25.7,36.9-57.9,62.3-95,86.2c-49.7,32-114,45-173,42.1c-65.8-3.2-130.6-33.4-179-77.1C26.4,478.2,13.3,287.5,127.1,163.2C148.3,140,171.3,124.1,197,107c34.6-23,90.7-43,133-42Z"/>
<path d="M242,152c33.2-11.1,20.2,24.3,24.2,30.5c4.2,6.9,13.4,15.8,18.8,22.5c7.5,9.4,10.5,22.2,17,32c1.7-.3,3.3-.7,5-1c-.6-5-4.3-13.9-7-18c0-6.2,21.6-8.6,27.8-9.4C422.8,196.4,484.9,256,484,350c2.1,7.2,.3,14.5,1,21.8c3.2,35.5,4.2,77.6-27,102.2c-4.1,8.2-18.8,15.6-26.5,20.4c-57.3,35.7-123.4,14.9-170.1-26.7c-9.5-8.4-25.9-26.9-27.4-39.7c3.4-1.1,3.4-1.1,8-7c-1-1-2-2-3-3c-48.3,41.4-98.1-66.2-77-104c.3-1.7,.7-3.3,1-5c4.2,1.4,5.6,4.7,8.6,7.5c11.5,10.6,25.8,16.1,38.4,24.5c10.2,7.6,17.4,14.8,25,25c5.4-2.7-2.7-15.2-6-18c-5.2-5.2-13.3-12-20-15c-.7-28.6,14.4-69,37-87l5-5c4-4.3,11.7-10.1,17-13c3.5,3.5,4.1,15,4,20c1.7,.3,3.3,.7,5,1c.2-13.2-7.4-55.6-22.1-60.8c-11.2-3.9-12.5,3.9-22.9-7.2c-9.1-8.7-.5-25.5,10-29ZM491,342c0-6.4,22.9-28.2,29-33c.3,1,.7,2,1,3c10.2,17.2-2.6,104-28,104c0-1,0-2,0-3c-.1-13-3-34.7,1.7-46.5c3.5-9.2,16-18.4,17.3-27.5c-7.4,0-15.8,13.3-20,19c-1.6-5.1-1.1-10.7-1-16ZM409,515c3.6-3.6,10.7-8.2,15.6-9.8c22.3-7.4,47.3-32.9,58.4-53.2c3.9-7.2,4.1-19.5,8.2-25.8c3.9-6.1,16.2-10.8,20.8-18.2c20.2-32.2,22.6-60.6,14.1-97.2c-.7-3.1-1.2-8.1-5.4-7.6c-9.3,1.2-20.2,21.6-29.7,24.8c-8.9-14.5-4.4-44.6-15.4-60.2c-5.2-7.4-13.3-13.9-19.6-20.8c-3.8-4.2-7.7-11.2-13-13c-.4-14,5.9-30.6,17.4-39.3c7.1-5.4,35.2,.2,30.3-23.8c-.7-3.3-.1-7.2-2.1-10c-1.6-2.3-3.7-4.9-5.8-6.8c-11.8-10.7-32.5-6.4-38.1,8.4c-1.8,5,1.1,12.4-.7,16.5c-1.5,3.4-11.9,11.6-15,15c-2.8,3.1-11.2,18.2-13,19c-.4,.2-2.4-.1-2.8-.2c-6.6-1-12.9-5.1-19.3-6.6c-29.6-6.7-57.1-6.5-86.8,.3c-2.2,.5-11.3,2.4-13.1,1.5c0,0-24-28.9-24-29c-1.3-15.9,1.8-41.4-26.9-34.1c-.3,.1-.6,.2-.8,.3c-1.5,.4-4,1-5.3,1.8c-13,8.6-17.7,31.2-5.9,42.9c6.5,6.3,15.4,1.3,20.9,4.1c4.5,2.3,16.1,24,12.7,28.1c-5,6-17,12.3-23.3,18.7c-25.1,25.9-32,51.5-39.4,86.2c-11.5-1.3-33.9-29.6-41-27c-4.8,1.7-7.2,19.6-8,24c-3.8,20.5,3,62,15.4,79.2c8.4,11.5,21.5,20.7,32.6,28.8c7.3,5.3,17.5,.1,24,3c4.1,1.9,9.5,14.1,12,18c6.1,9.4,34.4,32.7,45,39.9c7.4,5,17.5,7,15,17.1c1,.3,2,.7,3,1c-1,3-1,3-2,4c1,.3,2,.7,3,1c0,1.7,0,3.3,0,5c-.7,.3-1.3,.7-2,1c1.6,4.9-1,18.3,3,22c5.1,4.8,85.6,8,88,5c2.6-3.2,1-25.1,1-30c1,0,2,0,3,0c-2-1-2-1-3-3c6.6,.4,10.7-2.2,18-1ZM308,544c-.3,0-.7,0-1,0c0-12.3,0-24.7,0-37c26.5,10.6,48.7,11.1,77,11c0,4.7,0,9.3,0,14c1.3,4,1.1,7.9,1,12c0,1.3,0,2.7,0,4c-24,.1-53.9,2.3-77-4ZM437,226c-3.5-1.2-14.4-7.2-13.8-10.9c2.6-15.6,19.9-22.4,27.4-32.9c3.1-4.3-2.6-16.1,3.9-25.2c5.6-7.9,19.8-6.3,25.7,.3c15.9,18.1-1,36.8-22.2,30.7c-10.1,12-15.2,23.5-21,38Z"/>
<path d="M384,340c47.5-10.2,39.6-82-9.9-82.1c-11.7-.1-21,3.4-29.1,12.1c.7,.7,1.3,1.3,2,2c-9.8,12-11.5,17.8-10,33c.3-.3,.7-.7,1-1c-1.1-63.4,88.4-44.7,70,6c-3,8.3-6.7,16.9-16,20c-7.4,7.4-23.2,6.7-32,3c1.9,3.8,18.2,6.1,24,7Z"/>
<path d="M477,388c0-12.1,6.2-17.3,1.9-31.7c-10.5-34.6-61.8-40.5-74.9-4.3c.3,.3,.7,.7,1,1c.7-.7,1.3-1.3,2-2c-2.8,6.8-6.9,30.1,1,34c-16.7-49,51.1-73.9,65-27c1.8,6.9,3.3,14,1,21c1.8,3.8,2.4,4.4,0,8c1,.3,2,.7,3,1Z"/>
<path d="M290,341c23.7-11,49.5-7.2,56,23c1.3,4,1.1,7.9,1,12c.2,4.9,.6,8.6-2,13c.3,.3,.7,.7,1,1c1-.3,2-.7,3-1c13.3-79.8-71.6-69.7-77-31c.3,.7,.7,1.3,1,2c3.5-7,8.6-18.1,17-19Z"/>
<path d="M218,393c13.4-13.4-24.9-53.1-41-52c-.3,1-.7,2-1,3c14.9,9.4,20.2,16.2,32,28c-3.1,3.1-7,3.6-10,7c-2.4,4.6-2.2,8.9-2,14c8.6-3.4,4-10.4,15-13c1.6,4.9,1.9,11.3,7,13Z"/>
<path d="M386,413c1.4-.3,2.7-.7,4-1c0-4,0-8,0-12c-8-2-5.4,7.3-4,13Z"/>
<path d="M417,436c-6.8,.9-14,6.6-20.8,9.1c-20.9,8-39.1-1.7-57.2-10.1c1.1-3.6,1.1-3.6,1-11c-1.4-.3-2.7-.7-4-1c-3.1,7.8-4.6,14.5-14,16c-.3,1.7-.7,3.4-1,5c6.8,.5,8.3-2.4,14-5c8.2,5.9,15.9,11.1,25.9,13.7c12.5,3.3,54.7,.2,56.1-16.7Z"/>
<path d="M325,648c.1-9.2-1.1-17.9-1-27c-9.2,3.7-6.1,17.7-6,26c2.3,0,5.3-.7,7,1Z"/>
<path d="M424,633c0-1.1,0-1.1-2-5c-6.9-.1-39.4-.6-43,3v2c13.7,0,27.3,0,41,0c.4,2.2,.4,4.4,2,6c.7,0,1.3,0,2,0c0-2,0-4,0-6Z"/>
</g>
<path d="M154,162c0-5.2,11.9-11.9,14.9-15.3c15.2-17.1,36.7-27.4,56.3-37.1C283.8,80.3,349,72.7,412.8,88.1c6.1,1.5,26.7,3.9,29.2,8.9c18.6-1.6,85.7,43.6,98,59c9.3,3.1,28.6,27.6,34.5,36.1C625,266,631.7,304.7,633,394c-.7-2.5-1-4.4-1-7c-1.8,6.1-2.1,14.6-2,21c1.1,63.7-58.5,147.2-107.8,183.6c-7.6,5.6-15.7,14.9-25.2,16.4c-1.8,5.3-23,15-29,18h-1c-11.4-.6-21.9,11-34,11c-5.3,1.7-7.7,1.3-9-4c0,2,0,4,0,6c-.7,0-1.3,0-2,0c-13.1,4.4-29.2,8-43,8c0-4.7,0-9.3,0-14v-2c-1.6,5.1-1.1,10.7-1,16c-4,.5-7.9,1-12,1c-1,1-1.4,1.8-2,3c-21.3,.2-66.3,1.5-84-10c-2.9,2.9-25.2-7.2-29.6-9c-59.9-24.2-116.2-66.5-146.9-123.5c-4.8-8.9-13.1-21.7-16.4-31c-2.9-7.9-5-22.8-9.1-29.5c-5.7-9.3-9.4-30.3-9-42c-.7-.3-1.3-.7-2-1c.8-43.8-5.1-89.8,15-130c3.7-5.6,7.9-16.4,9-23c3.2-14,16.5-27.4,18-39c9.9-3.3,26.5-47.4,45-51ZM467,626h0ZM330,65c-42.3-1-98.4,19-133,42c-25.7,17.1-48.7,33-69.9,56.2C13.3,287.5,26.4,478.2,150,590c48.4,43.7,113.2,73.9,179,77.1C388,670,452.3,657,502,625c37.1-23.9,69.3-49.3,95-86.2C713.7,371.4,631.2,136.1,436,76.2C401.4,65.6,366.2,63.8,330,64c0,.3,0,.7,0,1Z" fill="#77D064"/>
<g fill="#9DC697">
<path d="M540,156c-12.3-15.4-79.4-60.6-98-59c-2.5-5-23.1-7.4-29.2-8.9c-63.8-15.4-129-7.8-187.6,21.5c-19.6,9.7-41.1,20-56.3,37.1c-3,3.4-14.9,10.1-14.9,15.3c66.8-66.8,162.4-90.6,253.8-72.3C423.4,92.8,443.7,97,458,104c12.2,6,25.9,12,37.5,19.4c10.7,6.8,35.7,29.7,44.5,32.6Z"/>
<path d="M185,592c-6.3,2.1-26.3-18.9-32-24C93.7,515.2,62.4,426.9,68,348.5c1.8-25.5,11.2-49,14-73.5c-20.1,40.2-14.2,86.2-15,130c.7,.3,1.3,.7,2,1c-.4,11.7,3.3,32.7,9,42c4.1,6.7,6.2,21.6,9.1,29.5c3.3,9.3,11.6,22.1,16.4,31c30.7,57,87,99.3,146.9,123.5c4.4,1.8,26.7,11.9,29.6,9c17.7,11.5,62.7,10.2,84,10c.6-1.2,1-2,2-3l-1-2c-4.4,5.4-15.5,3.2-22,3c-1.8-1.8-9.9-1.2-13-2c-3.9,1-3.9,1-5,1c-1.7-1.7-4.7-1-7-1c-5.5,0-6.2-3-6.4-7.8C310.4,605,353.1,611.7,378,612c0-2.7,0-5.3,0-8c-1.3-1.3-1.8-1-3.6-1.1c-24.7-.4-48.8,.3-72.8-6.7c-12.4-3.6-23.7-10.6-35.6-14.2c3.4,20.2,8.2,34.6,8,56c-2-.3-4-.7-6-1c-4-4-7.8-3.6-13-5c-5,0-22.6-41.6-37-49c-9.8,.9-14.6,10.6-21,17c-4-2-7.7-5.1-12-6c0-.7,0-1.3,0-2Z"/>
</g>
<g fill="#4A2D6E">
<path d="M632,387c.4-79.3-17-134.5-62.3-199.2c-8.2-11.6-20.9-20.7-29.7-31.8c-8.8-2.9-33.8-25.8-44.5-32.6C483.9,116,470.2,110,458,104c-14.3-7-34.6-11.2-50.2-14.3C316.4,71.4,220.8,95.2,154,162c-14,17.7-29,33.1-42,52c-7.2,10.5-12.9,29.9-21,38c-1.1,6.6-5.3,17.4-9,23c-2.8,24.5-12.2,48-14,73.5C62.4,426.9,93.7,515.2,153,568c5.7,5.1,25.7,26.1,32,24c8.9-8.9,19.3-20.8,33-9c14.4,7.4,32,49,37,49c0-24.5-31.3-67.5-59-59c0-6.9,4.3-12.2,10.4-15.2c49.2-24.3,61.9,45.1,61.6,79.2c2,.3,4,.7,6,1c.2-21.4-4.6-35.8-8-56c-1.3-2.7-2.7-5.3-4-8c13.5,2.2,27.1,7.8,41,10.4c23.4,4.5,46.2,4.7,70,4.6c1.6,5,3.9,9.9,5,15c0,2.7,0,5.3,0,8c-24.9-.3-67.6-7-66.4,27.2c.2,4.8,.9,7.8,6.4,7.8c-.1-8.3-3.2-22.3,6-26c-.1,9.1,1.1,17.8,1,27c1.1,0,1.1,0,5-1c.7-36.2-2.7-28.8,35-28c10.3,.1,62.4-5.6,67-1c1.3,4,1.1,7.9,1,12c.3,0,.7,0,1,0c0,2,0,4,0,6c1.7-.7,3.3-1.3,5-2c.1-4.1-.1-21-4-23c-9.2-4.7-39.5,1.2-51,1c0-3.3,0-6.7,0-10c-.7-5.4-4.3-8.6-5-14c26-2.5,43.1-9.9,67-17c1.7-1.7,3.3-3.3,5-5c12.3,12.3,13.8,39.7,17,56c2-.7,4-1.3,6-2c0-.7,0-1.3,0-2c-1.6-1.6-.9-3.7-1.1-5.9c-2-17.9-19.5-54.2-18.9-62.1c.7,0,1.3,0,2,0c27.7,3.8,28.3,29.6,28,52c-1,8.6-1,8.6-2,12c2.3,0,2.3,0,7-2c0-8.5,1.1-17.2,1-26c.7,0,1.3,0,2,0c4.2,5.1,9.2,9.6,13,15c47.9-23.9,92.4-86.8,109.8-135.9c4.4-12.6,10.5-49.5,15.2-57.1c-.1-6.4,.2-14.9,2-21ZM297,510c2.5-10.1-7.6-12.1-15-17.1c-10.6-7.2-38.9-30.5-45-39.9c-2.5-3.9-7.9-16.1-12-18c-6.5-2.9-16.7,2.3-24-3c-11.1-8.1-24.2-17.3-32.6-28.8C156,386,149.2,344.5,153,324c.8-4.4,3.2-22.3,8-24c7.1-2.6,29.5,25.7,41,27c7.4-34.7,14.3-60.3,39.4-86.2c6.3-6.4,18.3-12.7,23.3-18.7c3.4-4.1-8.2-25.8-12.7-28.1c-5.5-2.8-14.4,2.2-20.9-4.1c-11.8-11.7-7.1-34.3,5.9-42.9c1.3-.8,3.8-1.4,5.3-1.8c.2-.1,.5-.2,.8-.3c28.7-7.3,25.6,18.2,26.9,34.1c0,.1,24,29,24,29c1.8,.9,10.9-1,13.1-1.5c29.7-6.8,57.2-7,86.8-.3c6.4,1.5,12.7,5.6,19.3,6.6c.4,.1,2.4,.4,2.8,.2c1.8-.8,10.2-15.9,13-19c3.1-3.4,13.5-11.6,15-15c1.8-4.1-1.1-11.5,.7-16.5c5.6-14.8,26.3-19.1,38.1-8.4c2.1,1.9,4.2,4.5,5.8,6.8c2,2.8,1.4,6.7,2.1,10c4.9,24-23.2,18.4-30.3,23.8C448.9,203.4,442.6,220,443,234c5.3,1.8,9.2,8.8,13,13c6.3,6.9,14.4,13.4,19.6,20.8c11,15.6,6.5,45.7,15.4,60.2c9.5-3.2,20.4-23.6,29.7-24.8c4.2-.5,4.7,4.5,5.4,7.6c8.5,36.6,6.1,65-14.1,97.2c-4.6,7.4-16.9,12.1-20.8,18.2c-4.1,6.3-4.3,18.6-8.2,25.8c-11.1,20.3-36.1,45.8-58.4,53.2c-4.9,1.6-12,6.2-15.6,9.8c19.1,4.2,40.2,10.1,39.4,33c-.2,6-.7,11.6-5,16.4c-3.8,4-11.7,5-16.4,7.6c-3.3,1.1-6.6,2.2-10,3c-33.6,16.8-120.2,5.5-154.7-8.7c-8.9-3.6-12.5-11.8-20.3-15.3c-.1-5.6-1.6-18.3,1-23c7.4-13.4,40.3-16.8,54-18Z"/>
<path d="M394,519c-1,0-2,0-3,0c0,4.9,1.6,26.8-1,30c-2.4,3-82.9-.2-88-5c-4-3.7-1.4-17.1-3-22c.7-.3,1.3-.7,2-1c0-1.7,0-3.3,0-5c-1-.3-2-.7-3-1c-33.3-.6-65.9,23.7-13,30c0,.3,0,.7,0,1c52.6,7.1,85.8,9.7,138,1c34.9-14.8-17.7-26.9-29-28Z"/>
</g>
<path d="M300,218c2.7,4.1,6.4,13,7,18c-1.7,.3-3.3,.7-5,1c-6.5-9.8-9.5-22.6-17-32c-5.4-6.7-14.6-15.6-18.8-22.5c-4-6.2,9-41.6-24.2-30.5c.3,.3,.7,.7,1,1c-12.4,9.1-13.3,13-11,28c10.4,11.1,11.7,3.3,22.9,7.2c14.7,5.2,22.3,47.6,22.1,60.8c-1.7-.3-3.3-.7-5-1c.1-5-.5-16.5-4-20c-5.3,2.9-13,8.7-17,13c.3,.3,.7,.7,1,1c4.3-3.3,11.7-10.1,17-8c-.3,4.6-9.6,12.6-13,16c-21.1,27.1-33.7,63.7-27,98c3.3,2.8,11.4,15.3,6,18c-7.6-10.2-14.8-17.4-25-25c0,.3,0,.7,0,1c-20.2,0-34.7-15.1-48-28c-21.1,37.8,28.7,145.4,77,104c1,1,2,2,3,3c10.1,10.1,16.8,25.5,27.5,36.2c38,38.4,93.8,54.7,146.1,37.8c15.1-4.9,27.9-16.2,42.4-21c31.2-24.6,30.2-66.7,27-102.2c-.7-7.3,1.1-14.6-1-21.8c0,1.7,0,3.3,0,5c-1.7-1.7-9.8-84.4-39-99c-5.8,17.4-31.8-13.2-11-11c-34.4-36.2-89-32.2-134-27Zm45,52c8.1-8.7,17.4-12.2,29.1-12.1c49.5,.1,57.4,71.9,9.9,82.1c0,.3,0,.7,0,1c-12.3,.1-22.4,0-33.4-6.6C328.8,321.3,326.7,287,345,270ZM176,344c.3-1,.7-2,1-3c16.1-1.1,54.4,38.6,41,52c0,3.1,3.5,6.4,2,10c-4.8,11.9-21.7-2.4-24-10c-.2-5.1-.4-9.4,2-14c-6.5-13-20.4-18.3-22-35Zm228,8c13.1-36.2,64.4-30.3,74.9,4.3c4.3,14.4-1.9,19.6-1.9,31.7c-23.4,50.4-99.1,11-73-36Zm-132,6c5.4-38.7,90.3-48.8,77,31c-26.3,52.7-98.9,7.6-77-31ZM262,168c-4.6,1-9.7,2.7-12.7-1.7c-10.4-14.9,17.8-18.7,12.7,1.7Zm88,86c1.5-7.5,6.8-7.1,14-8c0-.3,0-.7,0-1c8.4-.1,23.9-2.3,31,2c-.3,1.3-.7,2.6-1,4c-15-.1-29.5,3.3-44,3Zm-78,27c-42.2,28.5-9.1-43.1,3.4-14.9c3,6.7-1.5,9.3-3.4,14.9Zm174,1c-2.7,.7-5.4,1.2-8.1,.6c-20.1-4.5,15.2-23.7,8.1-.6ZM248,308c-6.1-21.3,21.7-11.7,7.6-.7c-2.8,2.2-4.5,1.8-7.6,.7ZM373,413c-1.6-.3-3.3-.7-5-1c-1-5.8-3.2-14,5-12c0,4.3,0,8.7,0,13Zm13,0c-1.4-5.7-4-15,4-13c0,4,0,8,0,12c-1.3,.3-2.6,.7-4,1Zm31,23c-1.4,16.9-43.6,20-56.1,16.7c-10-2.6-17.7-7.8-25.9-13.7c-5.7,2.6-7.2,5.5-14,5c.3-1.6,.7-3.3,1-5c9.4-1.5,10.9-8.2,14-16c1.3,.3,2.6,.7,4,1c.1,7.4,.1,7.4-1,11c18.1,8.4,36.3,18.1,57.2,10.1c6.8-2.5,14-8.2,20.8-9.1Zm-54,28c4.1-.1,23.6-.2,26,1c-1.6,11.3-26,11.8-26-1Z" fill="#6CDD6E"/>
<path d="M232,181c-2.3-15-1.4-18.9,11-28c-.3-.3-.7-.7-1-1c-10.5,3.5-19.1,20.3-10,29Z" fill="#77D064"/>
<path d="M437,226c5.8-14.5,10.9-26,21-38c21.2,6.1,38.1-12.6,22.2-30.7c-5.9-6.6-20.1-8.2-25.7-.3c-6.5,9.1-.8,20.9-3.9,25.2c-7.5,10.5-24.8,17.3-27.4,32.9c-.6,3.7,10.3,9.7,13.8,10.9Zm46-54c-2.6,.7-7.5,1.6-10,0c-18.8-11.7,17.7-23.1,10,0Z" fill="#6CDD6E"/>
<g fill="#80E47E">
<path d="M262,168c5.1-20.4-23.1-16.6-12.7-1.7c3,4.4,8.1,2.7,12.7,1.7Z"/>
<path d="M521,312c-.3-1-.7-2-1-3c-6.1,4.8-29,26.6-29,33c6.6,0,27.3-23.9,30-30Z"/>
</g>
<g fill="#9DC697">
<path d="M632,387c0,2.6,.3,4.5,1,7c-1.3-89.3-8-128-58.5-201.9c-5.9-8.5-25.2-33-34.5-36.1c8.8,11.1,21.5,20.2,29.7,31.8C615,252.5,632.4,307.7,632,387Z"/>
<path d="M468,626c6-3,27.2-12.7,29-18c9.5-1.5,17.6-10.8,25.2-16.4C571.5,555.2,631.1,471.7,630,408c-4.7,7.6-10.8,44.5-15.2,57.1C597.4,514.2,552.9,577.1,505,601c-2.6,2.6-5.7,4.3-9,6c-2.1,2.1-5,3-7,5c-4.7,2-4.7,2-7,2c-2.6,2.6-5.9,1.9-8,4c0,.7,0,1.3,0,2c-2,.7-4,1.3-6,2c-3.2-16.3-4.7-43.7-17-56c-1.7,1.7-3.3,3.3-5,5c-11.7,14.3-43.1,32.1-62,31c0,3.3,0,6.7,0,10c11.5,.2,41.8-5.7,51-1c3.9,2,4.1,18.9,4,23c-1.7,.7-3.3,1.3-5,2c0-2,0-4,0-6c-.3,0-.7,0-1,0v7c12.1,0,22.6-11.6,34-11h1Zm-1,0h0Z"/>
</g>
<path d="M483,172c7.7-23.1-28.8-11.7-10,0c2.5,1.6,7.4,.7,10,0Z" fill="#80E47E"/>
<path d="M91,252c8.1-8.1,13.8-27.5,21-38c13-18.9,28-34.3,42-52c-18.5,3.6-35.1,47.7-45,51c-1.5,11.6-14.8,25-18,39Z" fill="#9DC697"/>
<path d="M484,350c.9-94-61.2-153.6-156.2-141.4c-6.2,.8-27.8,3.2-27.8,9.4c45-5.2,99.6-9.2,134,27c5.2,1.9,8,6.5,11,11c29.2,14.6,37.3,97.3,39,99c0-1.7,0-3.3,0-5Z" fill="#80E47E"/>
<path d="M256,250c3.4-3.4,12.7-11.4,13-16c-5.3-2.1-12.7,4.7-17,8c-.3-.3-.7-.7-1-1l-5,5c3.3,0,5.4-2,9-2c1,4.9,1,4.9,1,6Z" fill="#77D064"/>
<g fill="#40A761">
<path d="M256,250c0-1.1,0-1.1-1-6c-3.6,0-5.7,2-9,2c-22.6,18-37.7,58.4-37,87c6.7,3,14.8,9.8,20,15c-6.7-34.3,5.9-70.9,27-98Z"/>
<path d="M350,254c14.5,.3,29-3.1,44-3c.3-1.4,.7-2.7,1-4c-7.1-4.3-22.6-2.1-31-2c0,.3,0,.7,0,1c-7.2,.9-12.5,.5-14,8Z"/>
<path d="M445,256c-3-4.5-5.8-9.1-11-11c-20.8-2.2,5.2,28.4,11,11Z"/>
<path d="M272,281c1.9-5.6,6.4-8.2,3.4-14.9c-12.5-28.2-45.6,43.4-3.4,14.9Z"/>
</g>
<g fill="#FCFDFD">
<path d="M392,330c9.3-3.1,13-11.7,16-20c18.4-50.7-71.1-69.4-70-6c4.8,8.3,4.3,14.7,12,22c21,7.7,19.2,7.2,42,4Zm-1-45c26.6,29.8-26.4,51.4-31.8,18.2c-.5-3.2-1.2-9,1.3-11.6c12.5-13,14.5-11.9,30.5-6.6Z"/>
<path d="M473,358c-13.9-46.9-81.7-22-65,27c9.3,25.3,40,26.5,57,9c0-5.3,6-11.4,7.9-16.3c1.7-4.2,.2-14.9,.1-19.7Zm-25,30c-53.3,12.6-20.5-62.5,5.8-30.2c10.1,12.4,2.6,21.8-5.8,30.2Z"/>
<path d="M346,364c-6.5-30.2-32.3-34-56-23c-35,35,6.8,88.5,43,59c0-5.6,13.3-18.6,13-36Zm-34-12c56.3-2.2,4.7,69.6-12.5,27.4c-4.6-11.3,.2-23.5,12.5-26.4c0-.3,0-.7,0-1Z"/>
</g>
<g fill="#40A761">
<path d="M338,304c-.3,.3-.7,.7-1,1c-1.5-15.2,.2-21,10-33c-.7-.7-1.3-1.3-2-2c-18.3,17-16.2,51.3,5.6,64.4c11,6.6,21.1,6.7,33.4,6.6c0-.3,0-.7,0-1c-5.8-.9-22.1-3.2-24-7c-3.9-1.8-7-4-10-7c-7.7-7.3-7.2-13.7-12-22Z"/>
<path d="M446,282c7.1-23.1-28.2-3.9-8.1,.6c2.7,.6,5.4,.1,8.1-.6Z"/>
</g>
<g fill="#347149">
<path d="M391,285c-16-5.3-18-6.4-30.5,6.6c-2.5,2.6-1.8,8.4-1.3,11.6c5.4,33.2,58.4,11.6,31.8-18.2Zm-8,14c-1.3-2.2-3-6.4-2-9c4.7-12.2,23.6,11,2,9Z"/>
<path d="M448,388c8.4-8.4,15.9-17.8,5.8-30.2c-26.3-32.3-59.1,42.8-5.8,30.2Zm4-20c-14.6,8.8-12.8-16.6-1.5-9.5c3.3,2.1,2.6,6.3,1.5,9.5Z"/>
<path d="M312,352c0,.3,0,.7,0,1c-12.3,2.9-17.1,15.1-12.5,26.4c17.2,42.2,68.8-29.6,12.5-27.4Zm20,15c-1,1.5-2.1,2.5-3.7,3.2c-20,8.5,2.3-30.3,3.7-3.2Z"/>
</g>
<g fill="#EBF4F3">
<path d="M383,299c21.6,2,2.7-21.2-2-9c-1,2.6,.7,6.8,2,9Z"/>
<path d="M452,368c1.1-3.2,1.8-7.4-1.5-9.5c-11.3-7.1-13.1,18.3,1.5,9.5Z"/>
<path d="M332,367c-1.4-27.1-23.7,11.7-3.7,3.2c1.6-.7,2.7-1.7,3.7-3.2Z"/>
</g>
<path d="M248,308c3.1,1.1,4.8,1.5,7.6-.7c14.1-11-13.7-20.6-7.6,.7Z" fill="#40A761"/>
<path d="M210,341c-12.6-8.4-26.9-13.9-38.4-24.5c-3-2.8-4.4-6.1-8.6-7.5c-.3,1.7-.7,3.3-1,5c13.3,12.9,27.8,28,48,28c0-.3,0-.7,0-1Z" fill="#80E47E"/>
<path d="M493,413c0,1,0,2,0,3c25.4,0,38.2-86.8,28-104c-2.7,6.1-23.4,30-30,30c-.1,5.3-.6,10.9,1,16c4.2-5.7,12.6-19,20-19c15.4,26.6-18.4,51.8-18,74c-.3,0-.7,0-1,0Z" fill="#6CDD6E"/>
<path d="M20,365c5.2-10.4,3.2-27.7,3-39c-3.2,12-3.1,26.6-3,39Z" fill="#40A761"/>
<path d="M392,330c-22.8,3.2-21,3.7-42-4c3,3,6.1,5.2,10,7c8.8,3.7,24.6,4.4,32-3Z" fill="#EBF4F3"/>
<g fill="#40A761">
<path d="M493,413c.3,0,.7,0,1,0c-.4-22.2,33.4-47.4,18-74c-1.3,9.1-13.8,18.3-17.3,27.5C490,378.3,492.9,400,493,413Z"/>
<path d="M333,400c-36.2,29.5-78-24-43-59c-8.4,.9-13.5,12-17,19c-.3-.7-.7-1.3-1-2c-21.9,38.6,50.7,83.7,77,31c-1,.3-2,.7-3,1c-.3-.3-.7-.7-1-1c2.6-4.4,2.2-8.1,2-13c-2.6,4.6-7.1,24-14,24Z"/>
<path d="M408,385c-7.9-3.9-3.8-27.2-1-34c-.7,.7-1.3,1.3-2,2c-.3-.3-.7-.7-1-1c-26.1,47,49.6,86.4,73,36c-1-.3-2-.7-3-1c2.4-3.6,1.8-4.2,0-8c-2.9,5.6-4.4,10.4-9,15c-17,17.5-47.7,16.3-57-9Z"/>
<path d="M198,379c3-3.4,6.9-3.9,10-7c-11.8-11.8-17.1-18.6-32-28c1.6,16.7,15.5,22,22,35Z"/>
</g>
<g fill="#EBF4F3">
<path d="M678,400c.3,0,.7,0,1,0c3.7-8.7,2.7-37.5,0-47c.1,15.7-1,31.5-1,47Z"/>
<path d="M574,608c4.6,0,25.7-22.4,26-27c-2.9,2.8-26,26-26,27Z"/>
<path d="M474,379c2.3-7,.8-14.1-1-21c.1,4.8,1.6,15.5-.1,19.7c-1.9,4.9-7.9,11-7.9,16.3c4.6-4.6,6.1-9.4,9-15Z"/>
<path d="M347,376c.1-4.1,.3-8-1-12c.3,17.4-13,30.4-13,36c6.9,0,11.4-19.4,14-24Z"/>
</g>
<path d="M218,393c-5.1-1.7-5.4-8.1-7-13c-11,2.6-6.4,9.6-15,13c2.3,7.6,19.2,21.9,24,10c1.5-3.6-2-6.9-2-10Z" fill="#40A761"/>
<path d="M373,413c0-4.3,0-8.7,0-13c-8.2-2-6,6.2-5,12c1.7,.3,3.4,.7,5,1Z" fill="#347149"/>
<g fill="#40A761">
<path d="M458,474c-14.5,4.8-27.3,16.1-42.4,21c-52.3,16.9-108.1,.6-146.1-37.8c-10.7-10.7-17.4-26.1-27.5-36.2c-4.6,5.9-4.6,5.9-8,7c1.5,12.8,17.9,31.3,27.4,39.7c46.7,41.6,112.8,62.4,170.1,26.7c7.7-4.8,22.4-12.2,26.5-20.4Z"/>
<path d="M384,532c0-4.7,0-9.3,0-14c-28.3,.1-50.5-.4-77-11c0,12.3,0,24.7,0,37c.3,0,.7,0,1,0c0-8,0-16,0-24c21,14,51.3,21.7,76,12Z"/>
<path d="M363,464c0,12.8,24.4,12.3,26,1c-2.4-1.2-21.9-1.1-26-1Z"/>
</g>
<g fill="#96AAA8">
<path d="M298,515c1-1,1-1,2-4c-1-.3-2-.7-3-1c-13.7,1.2-46.6,4.6-54,18c-2.6,4.7-1.1,17.4-1,23c7.8,3.5,11.4,11.7,20.3,15.3c34.5,14.2,121.1,25.5,154.7,8.7c.1-6,.4-12.1-1-18c-19.3,4.1-129.8,9.5-136-9c1.7-.7,3.3-1.3,5-2c0-.3,0-.7,0-1c-52.9-6.3-20.3-30.6,13-30Zm21,57c-7.3,.3-18.1-1.1-25.2-2.9c-1.7-.4-7.5-3.5-4.1-5.6c4.8-3.2,21.6,1.7,28.3,1.5c1.8,3,2.1,3.7,1,7Z"/>
<path d="M384,602c18.9,1.1,50.3-16.7,62-31c-23.9,7.1-41,14.5-67,17c.7,5.4,4.3,8.6,5,14Z"/>
<path d="M433,630c.1-4.1,.3-8-1-12c0,4.7,0,9.3,0,14c-1-4-1.7-8.1-3-12c-21.3,0-42.7,0-64,0c0-.3,0-.7,0-1c-37.7-.8-34.3-8.2-35,28c3.1,.8,11.2,.2,13,2c-9.5-19.1,24.1-28.3,22-3l1,2c4.1,0,8-.5,12-1c-.1-5.3-.6-10.9,1-16c3.6-3.6,36.1-3.1,43-3c2,3.9,2,3.9,2,5c1.3,5.3,3.7,5.7,9,4v-7Z"/>
<path d="M427,572c4.7-2.6,12.6-3.6,16.4-7.6c4.3-4.8,4.8-10.4,5-16.4c.8-22.9-20.3-28.8-39.4-33c-7.3-1.2-11.4,1.4-18,1c1,2,1,2,3,3c11.3,1.1,63.9,13.2,29,28c7.8,.2,17-3.1,23-8c0,5.7-13.7,12.2-19,14c0,6.3,0,12.7,0,19Z"/>
<path d="M456,550c-.7,0-1.3,0-2,0c-.6,7.9,16.9,44.2,18.9,62.1c.2,2.2-.5,4.3,1.1,5.9c2.1-2.1,5.4-1.4,8-4c1-3.4,1-3.4,2-12c-.3,1-.7,2-1,3c-4.3-12.8-2.4-22.6-11.3-34.7c-4.4-5.9-15.7-14-15.7-20.3Z"/>
</g>
<path d="M385,544c.1-4.1,.3-8-1-12c-24.7,9.7-55,2-76-12c0,8,0,16,0,24c24.5-.2,49.3,1,74,1c.9-4.1,1.1-7.8,1-12c1.2,3.7,1.1,7.2,1,11c.3,0,.7,0,1,0Z" fill="#6CDD6E"/>
<path d="M385,544c-.3,0-.7,0-1,0c.1-3.8,.2-7.3-1-11c.1,4.2-.1,7.9-1,12c-24.7,0-49.5-1.2-74-1c23.1,6.3,53,4.1,77,4c0-1.3,0-2.7,0-4Z" fill="#77D064"/>
<g fill="#EBF4F3">
<path d="M423,547c-52.2,8.7-85.4,6.1-138-1c-1.7,.7-3.3,1.3-5,2c6.2,18.5,116.7,13.1,136,9c1.4,5.9,1.1,12,1,18c3.4-.8,6.7-1.9,10-3c0-6.3,0-12.7,0-19c5.3-1.8,19-8.3,19-14c-6,4.9-15.2,8.2-23,8Z"/>
<path d="M484,602c.3-22.4-.3-48.2-28-52c0,6.3,11.3,14.4,15.7,20.3c8.9,12.1,7,21.9,11.3,34.7c.3-1,.7-2,1-3Z"/>
</g>
<g fill="#96AAA8">
<path d="M268,637c.3-34.1-12.4-103.5-61.6-79.2c-6.1,3-10.4,8.3-10.4,15.2c27.7-8.5,59,34.5,59,59c5.2,1.4,9,1,13,5Z"/>
<path d="M218,583c-13.7-11.8-24.1,.1-33,9c0,.7,0,1.3,0,2c4.3,.9,8,4,12,6c6.4-6.4,11.2-16.1,21-17Z"/>
</g>
<path d="M319,572c1.1-3.3,.8-4-1-7c-6.7,.2-23.5-4.7-28.3-1.5c-3.4,2.1,2.4,5.2,4.1,5.6c7.1,1.8,17.9,3.2,25.2,2.9Z" fill="#4A2D6E"/>
<g fill="#96AAA8">
<path d="M266,582c11.9,3.6,23.2,10.6,35.6,14.2c24,7,48.1,6.3,72.8,6.7c1.8,.1,2.3-.2,3.6,1.1c-1.1-5.1-3.4-10-5-15c-23.8,.1-46.6-.1-70-4.6c-13.9-2.6-27.5-8.2-41-10.4c1.3,2.7,2.7,5.3,4,8Z"/>
<path d="M492,586c-.7,0-1.3,0-2,0c.1,8.8-1,17.5-1,26c2-2,4.9-2.9,7-5c0-7-7.9-7.4-4-21Z"/>
</g>
<g fill="#EBF4F3">
<path d="M505,601c-3.8-5.4-8.8-9.9-13-15c-3.9,13.6,4,14,4,21c3.3-1.7,6.4-3.4,9-6Z"/>
<path d="M432,618c-4.6-4.6-56.7,1.1-67,1c0,.3,0,.7,0,1c21.3,0,42.7,0,64,0c1.3,3.9,2,8,3,12c0-4.7,0-9.3,0-14Z"/>
</g>
<path d="M365,646c2.1-25.3-31.5-16.1-22,3c6.5,.2,17.6,2.4,22-3Zm-2,0c-5.7,1-11.2,1.1-17,1c-3-11.2,1.5-15.3,12-15c1.3,3.1,1.7,3.9,5,5c0,3,0,5.9,0,9Z" fill="#347149"/>
<path d="M363,646c0-3.1,0-6,0-9c-3.3-1.1-3.7-1.9-5-5c-10.5-.3-15,3.8-12,15c5.8,.1,11.3,0,17-1Z" fill="#96AAA8"/>
<path d="M422,639c-1.6-1.6-1.6-3.8-2-6c-13.7,0-27.3,0-41,0c0,4.7,0,9.3,0,14c13.8,0,29.9-3.6,43-8Z" fill="#40A761"/>
<path d="M369,695c14.9,.2,38.7,.4,52-7c-17.5,1.6-34.2,6.3-52,6c0,.3,0,.7,0,1Z" fill="#EBF4F3"/>
</svg>
