<svg xmlns="http://www.w3.org/2000/svg" width="224" height="120" viewBox="0 0 224 120" fill="none"><defs><clipPath id="c-AW1GL"><rect width="224" height="120"/></clipPath></defs><g clip-path="url(#c-AW1GL)"><g transform="translate(24 0)"><svg x="46.008" y="15.727" width="118.851" height="79.554" viewBox="0 0 1411.391 944.722" preserveAspectRatio="none" overflow="visible"><path d="M22.73108 0c3.61999 3.26999 4.28998 4.87 5.21002 9.79001 5.15002 27.23999-21.09998 35.92001-21.21002 61.20999-2.08002-0.41-1.96002 0.41-4.12-1.89999-10.70001-11.39999 14.78998-34.63 17.15998-47.04001 1.65997-8.64999-3.86999-15.39002 2.96002-22.06m18 2c2.72998 0.35001 2.46002 0.23001 5 0 6.09998 13.04999 2.21997 30.07999-5.07001 41.92999-3.39001 5.51999-7.84003 10.59-10.54999 16.45002-3.03998 6.62-3.03998 12.85999-4.38 19.61999-2.14002 0.28-5.01001 0.73999-7 1-4.59003-21.01001 13.71002-33.10001 19.28998-50.70999 2.91998-9.20999 0.85999-18.73999 2.71002-28.29001m20 11c2.46002 2.26001 5.71002 4.67999 7.28998 7.70999 6.02002 11.60999-6.11999 31.19-10.90998 41.67002-2.32001 5.04999-3.78998 13-6.86999 17.13-2.62 3.51999-2.40997 2.48001-5.51001 2.48999-4.89001-10.10998 11.86999-32.97 14.75-44.25 2.09003-8.14999 0.96002-16.72 1.25-24.75m-13 83c1.41998 1.56 1.70001 0.94 2.65002 3.35001 2.16998 5.51999 3 12.57 4.59003 18.41 3.64001 13.44 7.48999 26.91 11.88001 40.11999 8.91998 26.76001 20.82001 53.19001 29.09997 79.9 3.09003 9.97 4.84003 21.64999 7.04999 31.94998 2.47998 11.54999 5.65002 23.75 7.59003 35.32001 2 11.96997 1.38 26.34002 2.40997 38.67999 2.90002 34.84003 6.56 69.64002 14.17999 103.82001 2.38001 10.67999 5.12 21.38 9.60999 31.39001 4.69 10.44 13.34002 22.03003 16.88 32.12 1.59998 4.53998 2.39002 11.65002 3.38001 16.61999 1.09002 5.41999 2.39001 10.96997 1.67999 16.32001-3.53998-4.42999-2.52002-7.13-4.31-12.28998-1.71997-5-5.29999-11.89001-7.72998-16.66998-6.78003-13.33002-15.09003-24.34998-20.31-38.69-13.96002-38.41999-18.46997-87.85999-21.46002-128.53998-1.29999-17.82001-1.83002-35.81-4.51001-53.48999-4.98999-33.01001-16.28003-60.66001-27.28998-91.70999-9.75-27.48001-19.5-54.03-26.59002-82.41001-1.21997-4.89999-4.65997-15.25-3.78003-19.89999 0.73999-3.89001 2.15997-3.22 4.97998-4.29999m-6 55c7.67999 9.67001 14.17999 26.45001 18.72998 38.26999 15.97998 41.56 25.89001 85.77002 32.21002 129.78998 2.20001 15.35998 4.82001 31.42999 5.04999 46.95001 0.20001 12.70001 4.09997 33-1.98999 43.98999-0.94-1.34003-1.29999-0.85998-2.06-2.94-5.79999-15.90003-3.65002-38.38001-5.48999-55.51001-4.04999-37.65997-10.44-74.45001-19.84997-111.15-4-15.57998-9.03998-31.36001-14.51002-46.48999-4.95001-13.67001-14.01001-27.98001-12.09002-42.91m1199.00008 301c9.78-1.90002 8.74-7.28003 11.3899-15.60998 5.1399-16.18 19.6399-40.32001 39.3999-39.02002 11.8301 0.78003 18.32 11.23999 19.81 22.03003 2.5 18.09997-4.78 44.09002-14.8401 59.35998-2.6201 3.96997-8.1499 8.65003-5.34 13.87 1.8798 3.5 17.1899 10.53003 21.57 13.38 8.5901 5.57001 24.45 15.39002 30.8101 22.92999 2.3899 2.83002 3.81 7.28998 6.53 10.72998 4.4099 5.57001 10.5501 13.21997 13.3799 19.62 13.8201 31.33002 27.04 63.09997 35.6799 96.32001 18.5801 71.39001 17.8701 159.63995-14.73 227.04998-5.06 10.46997-32.56 58.52002-42.1298 60.87-7.48 1.83997-22.2901 0.46997-30.5301 0.46997l-394.99997 0c-13.02001 0-78.18005 2.43994-85.34997-1.65002-10.15003-5.80005-30.02002-52.71998-34.02002-64.97998-23.43005-71.93006-18.56006-152.46998 12.13-221.60999 44.96998-101.35999 139.02002-178.96997 249.96996-195.03003 2.87-0.41998 5.61-0.73999 8.45 0.09998 3.64 1.08001 7.3 4.40002 10.74 6.25 7.06 3.83001 28.31 11.77002 35.38 7.21997 3.41-2.19001 3.79-6.62 0.5799-9.19001-2.87-2.29998-14.28-3.23999-18.67-4.32-17.7-4.40003-31.9201-19.91999-31.12-38.71002 0.38-9.21998 3.53-16.47999 11.67-21.32001 2.97-1.76001 7.3001-3.37 10.7801-2.75 11.79 2.09002 34.93 24.21002 43.16 33.28998 4.43 4.89001 8.89 12.09997 14.4599 15.53997 4.85 2.98999 7.7 3.19001 12.84 1.15998-1.7099-3.19001-2.5699-3.84998-3-7 3.86 1.28997 9.88 5.09002 12.21-1.78003 1.91-5.64002-4-17.65003-5.82-23.60999-5.02-16.47998-9.8-51.60998 7.1601-63.06 5.02-3.38 10.42-3.58001 16.14-2.23999 30.1599 7.06 51.4699 41.71003 54.04 70.96003 0.8601 9.72998-2.9499 22.82 2.27 30.72998m-301.99997 167c-12.34997 16.53003-22.26 35.5-12.36999 56.36999 3.10999 6.53998 9.65002 11.14002 16.80005 12.17999 23.18994 3.39002 38.31006-24.09002 39.34997-43.71997 0.28003-5.21002-3.10998-15.96997-0.51001-19.72998 2.75-3.97998 10.5-5.82 14.82996-8 7.35999-3.72998 14.68999-8.59997 20.06999-14.92999 2.4899-2.92999 4.29-6.47998 3.02-10.40997-1.0601-3.29999-4.01-4.69-7.2801-3.65998-3.5699 1.12-10.6999 8.83002-14.24995 11.56-5.38001 4.14002-11.69995 6.76001-18.12 8.88001-15.26001 5.04998-30.31994 2.48999-43.35998-6.71997-3.21997-2.27002-7.21997-6.83002-11.31995-6.93-2.89001-0.07-5.29004 1.91999-5.94995 4.71003-1.89002 8 13.25 16.96002 19.08996 20.40002m290.99997 77c7.6599-1.52002 34.8601 1.15002 35.3702-10.13 0.1398-2.90998-1.3702-5.15003-4.1299-6.06-4.25-1.41999-10.8201 0.78998-15.3701 1.06-10.21 0.59997-23.8799-2.81-32.74-8-16.62-9.71003-24.24-19.40003-32.5501-36.45002-1.99-4.09002-5.31-8.54998-10.56-6.30999-14.61 6.23999 14.0899 38.91998 18.9799 44.89001-11.4599 9.40997-19 20.64001-21.5699 35.42999-2.15 12.34003-1.08 25.73999 7.52 35.62 4.38 5.03003 11.36 7.78003 17.98 7.61999 19.2499-0.5 32.2899-20.17999 35.39-37.34997 1.21-6.73999 0.3501-13.64002 1.6799-20.32001m-388.49997-22.5c-16.68005 1.87-33.68005 12.26001-31.18005 31.17999 3.94995 29.90998 52.62 39.77002 76.43005 37.07001 15.74-1.78998 33.68995-11.83002 31.53003-30.20001-3.68005-31.31-51.79003-40.85999-76.78003-38.04999m201.86997 60.03003c-17.86 0.48999-43.37997 8.27002-53.25998 24.58002-1.43994 2.36004-2.18005 5.20001-1.02002 7.85003 4.68005 10.71997 16.39-5.10998 20.63-8.23999 20.77-15.38 52.39-13.83001 73.47 0.09003 8.41 5.53998 17.6 16.60004 20.85 26.14996 1.3 3.82996 1.75 10.68006 4.54 13.44995 3.59 3.56006 8.65 1.81995 9.86-2.95996 2.93-11.63-8.44-29.60998-15.8001-38.09002-13.9399-16.04999-38.65-23.39002-59.27-22.83002m183.1299 36.96997c-16.1201 1.80005-38.71 12.43005-35.94 31.98999 4.46 31.59998 52.7901 39.59998 78.0401 37.10999 16.9599-1.68006 38.6299-12.92005 35.81-33.10999-4.25-30.51001-53.81-38.69995-77.9099-35.98999m-1106.49972-264.5c7.70001 3.23999 9.41998 9.09003 11.04999 16.95001 2 9.62 6.34002 35.42999 0.95001 43.04999-3.14002-2.03003-3.52002-3.81-4.53998-7.46002-2.46002-8.75-2.09003-19.32001-3.53003-28.46997-1.44-9.16999-5.25-14.84003-3.92999-24.07001m38 40c2.09997 2.63 1.63 0.44 1 4-2.09998-2.63-1.63001-0.44-1-4m-15 7c11.67999 12.02002 12.44 53.39001 14.26001 70.73999 4.19 39.96002 16.05005 80.34998 27.06995 118.92999l9.78002 34.22003c1.29004 4.52002 4.07996 11.82996 4.06006 16.33997-0.02002 3.80005-1.61999 4.60999-4.17004 6.77002-6.13001-7.22998-10.81006-31.07996-13.67004-41.33002-18.75995-67.20996-36.05994-135.66998-37.32996-205.66998m16 4c0.28998 0.42999 0.89001 0.53998 1.35998 1.39001 1.48999 2.75 3.78998 4.66999 4.87 7.39002 3.14001 7.94 3.16998 23.15002 3.96002 32.03003 0.94 10.58002 2.70001 21.32001 4.14996 31.84997 4.16004 30.15003 9.93006 62.75 17.90003 92.09998 3.07996 11.35999 6.86999 23.01001 10.93994 34.06 3.52002 9.54999 12.57996 23.53998 10.81995 33.17999-5.68994-2.77002-7.58997-5.84998-10.62-11.38-16.26001-29.62-23.72998-65.33002-29.66998-98.33002-4.57001-25.35999-8.59998-50.34003-10.97998-76.02002-1.40997-15.28003-3.54999-31.17999-2.72998-46.27002m-26 11c2.09997 2.63 1.63 0.44 1 4-2.09998-2.63001-1.63001-0.44-1-4" fill="#E65D53" fill-rule="evenodd"/></svg><svg x="30.19" y="3.543" width="127.207" height="51.497" viewBox="0 0 1510.624 611.544" preserveAspectRatio="none" overflow="visible"><path d="M1058.1764 0.30299c18.77-2.54 26.3101 11.36 35.6899 24.1 3.2801 4.46001 7.9101 8.71001 8.4101 14.49001 1.11 12.78-37.86 65.26001-52.57 63.49-11.16-1.33999-43.5699-23.21-44.64-35.00999-1.14-12.5 39.75-65.26 53.11-67.07m359.9401 31.93c33.6298-4.19 76.56 33.03999 87.7299 63.19 5.72 15.46001 6.5801 32.96002 1.0701 48.61001-9.53 27.10001-33.47 42.45999-62.1999 37.51999-8.66-1.48999-19.69-7-27.93-6.48999-13.3501 0.84-23.04 10.75-28.9099 21.92999-4.55 8.64002-6.8199 19.79999-2.5701 28.97 5.41 11.69001 19.6399 17.76001 31.98 16.44001 5.6001-0.60001 10.6001-3.20002 16.3101-1.68 5.05 1.34 9.75 4.91001 10.5801 10.32001 1.32 8.56-5.93 15.59-12.73 19.51999-15.8101 9.13-30.7901 8.82001-47.74 3-18.23-6.26001-37.36-23.57999-44.3101-41.69-6.48-16.91001-4.9599-37.66001 3.9101-53.45002 13.41-23.86999 43.19-44.47 70.14-48.86001 7.2199-1.17999 16.3799-1.38999 23.6299-0.37 4.27 0.60001 12.08 3.47 15.9399 2.54001 2.48-0.58999 4.0601-2.38 4.78-4.78 1.3501-4.49001-0.6299-10.89-2.3799-15.10001-7.25-17.45999-22.3-29.91-36.7299-41.27001-4.71-3.71001-11.6599-8.08-15.1499-12.85-2.8702-3.92999-4.51-9.13-2.7701-13.86 2.49-6.75 10.6001-10.81 17.3501-11.64m-762.54048 484.46001c-4.96997-0.65997-10.70996-3.59002-16.04004-4.96002-10.38001-2.66998-21.46997-4.08002-32.15003-4.84997-55.47998-3.95002-129.63 10.77002-182.16003 29.46002-22.64002 8.04999-43.56006 17.90997-64.63001 29.36999-6 3.27002-16.45001 13.39002-21.97998 5.94001-5.17999-6.96998-10.05999-41.26001-12.30999-51.69001-11.40998-52.97998-22.59003-106.02002-34-159-5.72999-26.6-11.34998-53.25-17.18-79.82-1.59002-7.23999-7.15997-25.59-5.92999-31.98999 0.57001-2.93 2.16998-4.64002 4.51001-6.32999 12.96002-9.38001 30.90997-17.82001 45.48999-24.51001 55.62006-25.5 116.12994-40.85001 177.29999-43.70001 20.41003-0.95002 38.93005-1.25 59.13 3.03 16.20996 3.42001 36.07996 11.23999 45.09998 25.89999 7.75 12.60001 10.29004 36.07999 13.17004 50.82999 5.55005 28.42999 11.28003 56.79998 16.76001 85.23999 8.35999 43.35 17.60999 87.02996 24.37 130.63 1.61999 10.46002 6.39001 32.10999 3.82995 41.72998-0.82995 3.10999-1.30005 2.73999-3.28003 4.71997m227-301c2.93995 2.94 3.72998 3.66001 3.05005 8.23001-1.56006 10.43-7.41003 23.73999-10.92004 33.9-12.31006 35.63-27.58997 70.66998-42.88001 105.11999-3.23999 7.26999-18.28003 36.63001-17.48999 42.41999 2.03003 14.90997 96.03003 89.84997 113.05005 101.52001 4.92005 3.39002 25.42005 15.54999 25.38001 20.77002-0.04004 5.47998-10.21997 11.07001-14.39002 13.84003-45.86999 30.45001-104.19006 48.77002-157.88 59.12-48.12 9.27002-103.91004 15.64001-152.31006 6.46997-6.77002-1.28003-18.16003-2.71003-20.60999-9.39002 1.46997-6.21997 29.16004-23.14001 36.08997-28.90997 13.18005-10.95001 24.26001-25.17999 27.72998-42.27002 3.76001-18.54999-1.58997-43.26001-4.68005-61.96002-7.54004-45.57001-16.59998-91.19-25.45996-136.53998-2.60999-13.35999-5.26001-26.73001-7.92005-40.08002-1.40002-7-3.85998-15.42999-3.76001-22.23999 2.55005-1.6 2.89002-2.23999 6.21997-2.51999 5.12-0.42001 12.06995 1.35999 17.33997 1.95999 7.84997 0.9 17.54004 1.5 25.44995 1.54999 33.07996 0.20999 69.43005-5.54001 101.58997-13.39001 20.78002-5.07001 42.95996-12 62.65002-20.35001 8.35999-3.54999 16.82996-7.08999 25.06006-10.94 4.76001-2.23001 9.85998-5.64999 14.68994-6.31m-848.24963 202.75009c11.57001-2.26001 28.69 9.79999 38.40997 16.09003 11.46002 7.41998 28.5 20.26001 30.32001 34.64001 1.92999 15.18-14.89002 51.29999-33.40998 49.27997-12.47998-1.35998-18.10999-15.80999-27.65002-23.17999-9.04999-6.98999-17.66998-10.61999-28.13001-14.86999-5.69-2.29999-12.94-4.99-13.83001-12-1.15002-9.04999 25.29999-48.20002 34.28998-49.96003" fill="#5799E6" fill-rule="evenodd"/></svg><svg x="0" y="14.509" width="175" height="103.529" viewBox="0 0 2078.174 1229.436" preserveAspectRatio="none" overflow="visible"><path d="M625.08624 99.46939c7.68-2.28 15.73999-8.07999 23.03003-11.97 12.97998-6.92999 26.53998-13.23001 40.13001-18.87 56.59997-23.51001 121.48999-38.16 182.83996-38.16 24.71997 0 48.23999 1.19 70.98999 12.01001 24.42005 11.63 32.34998 23.78 37.92005 50.08002 1.15002 5.45999 2.63 17 5.73999 21.26001 11.45996 15.67999 99.55983 6 119.11993 2.42001 43.6001-7.98001 85.8801-21.14999 125.25-41.75 6.03-3.14999 22.3501-13.82001 28.3401-10.34 3.3298 1.92999 3.97 5.25 3.8298 8.79001-0.49 12.34-5.24 25.22-8.74 36.98001-12.1098 40.68-29.9199 81.19001-46.8999 120.10001-3.3 7.56-17.81 35.43997-17.73 41.51999 0.0699 5.5 16.48 19.72998 20.93 24.17999 25.25 25.25 54.74 48.34998 83.54 69.46002 10.1802 7.46003 25.0401 15.01001 33.8701 23.13001 2.92 2.67999 4.5501 5.52002 3.99 9.59003-1.79 13.10998-46.02 36.51001-58.1501 42.57-15.22 7.60999-30.9099 14.31-46.9099 20.09003-70.4202 25.40997-163.3301 42.03998-237.50009 30.32001-14.73999-2.33002-35.41004-6.56-45.54004-18.46002-12.33997-14.47999-14.09998-42.79999-16.73999-61.26001-0.98999-6.90003-1.41003-13.37-4.31006-19.69001-64.42004 3.34003-131.54004 22.62-189 52-6.28003 3.21002-25.71002 13.47998-29.11999 18.84003-3.63001 5.69 12.46002 69.32999 14.84997 80.42996 13.05005 60.59998 26.39002 121.17005 39.18005 181.82007 3.24 15.40002 6.51001 30.79993 9.81995 46.17993 2.06995 9.62 2.78003 19.51001 8.27002 27.72998 47.31995-23.18994 96.77002-43.56994 144.94006-65.05993 21.12-9.43006 59.06995-29.75 81.14002-30.85999 24.0501-1.21008 55.92 13.63001 78.64 22.19995 49.1201 18.51001 101.56 38.34009 148.6101 61.39002 15.7199 7.69995 53.6098 22.34997 59.3298 39.67004 2.3 6.95996-0.78 12.12 0.23 18.87 1.99 13.35998 4.4699 23.42004 1.4101 37.08996-0.6999 3.17005-2.3601 6.54004-2.4499 9.73999-0.22 7.47998 3.99 17.33997 4.0798 25.97998 0.1001 9.56995-9.97 34.80005 3.8301 39.21997 5.23 1.68006 15.47 0.76001 21.24 0.76001 9.8198 0 27.31 1.60999 36.24-0.69995 1.6399-0.42004 1.49-1.09997 1.76-1.30005 0.4499-1.21997 1.1799-1.38 1.06-2.88-0.29-3.57996-7.3801-13.97998-9.3801-17.80005-3.6899-7.04004-6.8799-14.79004-9.8198-22.18005-13.3401-33.44996-21-69.09998-21.8401-105.16004-2.9299-126.66003 69.0601-251.21997 181.6602-310.29996 19.7399-10.34997 40.3298-19.09997 61.78-25.21997 10.47-3 27.1399-5.34997 36.3598-9.64001 7.8301-3.65003 1.49-21.83002 2.47-30.53003 1.1602-10.31 6.2-20.25 14.95-26.04999 14.6601-9.71002 34.0901-8.65997 50.29-3.77002 7.44 2.25 16.28 9.26001 23.47 8.53003 4.9001-5.67999 2.48-14.17999 3.3801-21.61999 0.8999-7.47998 3.4199-16.14002 7.47-22.53003 6.29-9.93 15.3198-15.63001 27.1699-15.83002 20.97-0.34998 44 16.56 55.76 33.20001 4.3799 6.19 8.1299 12.90003 11.1499 19.84998 2.01 4.61999 3.25 10.67999 6.0701 13.92999 6.03-0.41998 8.6999-5.83002 13.48-9.52002 5.3999-4.16998 12.3-7.77002 19.06-8.94 10.43-1.79999 21.25 0.53003 29.1599 7.76001 18.17 16.61999 13.8999 47.65002 7.1399 68.53998-2 6.21002-11.3701 21.75-7.79 27.13 3.1399 4.71997 22.7099 15.93997 28.6599 20.31998 20.1101 14.82007 37.8401 31.23999 52.4199 51.58008 12.8899 17.96997 23.8401 39.90991 32.93 60.06994 33.04 73.25 51.6101 156.72998 37.8 236.92005-3.05 17.66003-7.6299 35.06005-14.29 51.70996-2.8702 7.19995-13.3101 25.70996-13.5701 31.43005 0.76 0.63001-0.0701 1.20996 1.9499 2.05005 4.47 1.86999 16.7901 0.94995 22.0501 0.94995 19 0 38-0.07996 57 0 5.1101 0.02002 13.79-0.21997 15 6.5 0.5601 3.12-1.6101 5.91003-4.3101 7.18994-5.99 2.85999-28.8999 1.31006-36.6899 1.31006l-715 0c-6.8999 0-18.0601-1.03003-24.46 0.54004-2.6899 0.67004-4.3198 1.92004-5.6499 4.34998-6.1201 11.13-1.8901 20.26-0.4599 31.68002 1.3899 11.14-0.7901 27.6701-8.3802 36.48-6.8 7.88-26.3899 16.84-36.02 21.98-29.0798 15.51-58.54 30.23-88.03 44.97-51.54 25.77-103.1199 51.56-154.67 77.3299-12.51 6.26-25.11998 12.19-37.66002 18.34-17.85999 8.75-36.81006 19.1999-56.93995 21.06-11.93994 1.1-23.73999-1.79-35.02001-5.4399-19.25-6.21-39.09998-15.34-57.87-23.13-44.82996-18.63-88.58997-38.9-132.53003-59.47-14.92999-6.98-59.32001-25.49-67.81-37.1899-7-9.63-7.52002-25.85-5.04998-37.0501 0.88-4 3.36999-9.8299 3.5-13.61 0.21002-5.8499-4.57001-15.26-4.85999-22.92-0.44-11.1999 4.58002-18.8199 5.16998-28.17 0.03998-0.63-6.73999-25.73002-6.96002-26.05009-1.34003-2.06006-3.33002-2.89001-5.67999-3.31994-10.54999-1.95997-27.40997-0.38001-38.62-0.38001l-519.99945 0c-8.25 0-38.56 2.35999-42.92999-4.02002-1.23001-1.79004-1.51999-3.75-0.67001-5.76001 1.07999-2.56006 3.53-4.06006 6.14001-4.68005 7.79001-1.85999 22-0.54004 30.45999-0.54004l68 0c7.07001 0 22.10999 1.61999 27-2 2.72-7.15003-10.70001-41.87-13.54999-51.44995-11.72-39.39002-23.98001-78.44995-34.89999-118.09998-5.23001-18.97998-12.79001-42.20996-14.35-61.65002-0.73001-8.94995-0.42001-16.71997 3.82998-24.77002 2.88-5.46997 7.01999-10.32996 12.03-13.96997 9.73999-7.08997 21.57999-11.04993 32.76001-15.23999 20.34-7.60999 41.58002-14.20996 62.33002-20.66993 50.15002-15.63 100.01001-31.68005 150.40002-46.59997 26.16998-7.75 57.09998-17.81006 84.02002-20.97998 9.34998-1.09998 19.34003 1.47998 27.19 6.66992 6.48999 4.30005 12.22998 11.31006 15.85999 18.14002 16.84997 31.72998 26.59997 73.59997 36.83002 108.17004 17.79998 60.1499 35.02002 120.69995 51.88 181.11987 2.88001 10.31006 12.51001 52.32996 17.76001 58.23999 3.85999 4.32996 42.16998 4.65003 47.21002 1.39002 6.41999-4.15003-0.21997-17.15003-0.94-23.66004-1.5-13.63 3.39001-20.93994 5.06-33.05005 1.08001-7.78003-2.14002-12.88 2.46002-20.70996 9.03998-15.42004 61.53998-34.64001 79.45001-43.55005 4.03003-2 11.37-4.22998 13.14002-8.58996 2-4.88001-4.04999-26.56006-5.38001-32.82996-7.88-37.40991-15.77002-74.79992-23.82001-112.17993-26.84997-124.61999-53.15997-249.37002-80-374.00003-9.04998-41.98999-17.96002-84.01001-27-126-4.46002-20.70001-7.79998-42.48999-13.10998-62.89001-2.71997-10.44001-11.06-12.10999-18.70001-18.29999-11.28998-9.13001-18.69001-25.26999-19.38001-39.62-1.15997-24.45001 11.85999-46.59 34.69-56.14999 17.03998-7.14 37.85999-5.22 53.01001 5.45001 18.25 12.84 25.23999 30.82001 24.14002 52.70001-0.34003 6.59-2.65997 14.44-5.67999 20.32001-1.83002 3.57999-5.31 7.76999-5.65998 11.81-0.22998 2.79999 0.53003 2.82999 1.41999 4.95001m-55.62-82.92001c-21.09997 3.98001-34.73999 27.39002-30.26001 47.79998 5.56 25.31 25.58002 35.76001 50.23999 32.01999 20.82001-3.17001 33.65003-27.67001 29.95001-47.20999-4.53997-24-26.34002-37.07001-49.92999-32.60998m444.61977 368.92004c3.13-4.28003 3.13-6.52002 2.87-11.86999-0.9499-19.12-5.4399-39.37-8.7299-58.27002-6.09-35.08002-13.02006-70.16999-19.90007-105.10001-5.58996-28.42999-11.03003-56.84-16.75-85.25-2.68994-13.32999-4.60998-27.37-8.64001-40.36002-2.20996-7.12-4.96997-13.31-10.41004-18.58999-16.40002-15.87-50.59997-21.03-72.45996-21.54001-71.14001-1.64001-160.72998 19.95999-223.07 54.89001-7.09998 3.98002-20.33002 9.73999-25.84998 15.15-1.78003 1.73999-2.47998 3.51999-2.61999 5.98999-0.33002 5.95001 2.94 16.1 4.28997 22.22 3.71003 16.73001 7.04999 33.54001 10.71997 50.28 17.28003 78.69998 33.28003 157.69003 50.64002 236.36001 0.91998 4.16999 2.02002 12.40003 6.75 13.89002 3.53003 1.10998 25.52002-12.96997 30.48999-15.46997 27.56995-13.84998 55.36999-24.94 85.28003-32.72003 46.32995-12.06 102.29004-23.32001 150.11999-19.34003 10.45996 0.86999 21.05005 2.15002 31.22998 4.77002 5.33 1.36999 11.0699 4.29999 16.04 4.96002m227-299c-4.8299 0.66-9.93 4.07999-14.69 6.31-8.8798 4.14999-18.0998 8.11999-27.1699 11.82999-25.24 10.30999-52.6802 18.26-79.3801 23.61999-26.53 5.32001-56.71 9.73001-83.74 9.22-7.4099-0.14001-16.2099-0.64001-23.5699-1.42999-7.6899-0.82999-14.78001-2.92999-22.44994-1.54999-2.01001 11.82001 6.93006 45.83002 9.81995 59.17999 8.44999 39.04999 15.37999 79.16999 22.46999 118.52997 4.2699 23.67999 13.2199 61 8.5299 84.10999-4.8 23.61999-23.5499 40.34997-42.44984 53.54998-5.66003 3.96003-19.56995 11.78998-21.37 17.63001 5.46998 14 76.28014 12.13 91.00004 12 16.72-0.15002 34.3799-2.67999 50.94-5.06 59.1799-8.5 120.77-25.15997 172.8798-55.11999 7.1802-4.13001 21.3501-11.44001 26.47-17.53003 1.3701-1.63001 2.27-3.46997 1.7-5.64002-1.02-3.84002-23.5899-17.90002-28.27-21.36999-16.8001-12.42999-107.9-84.46997-109.96-99.60999-0.73-5.34002 13.1301-33.10998 16.23-39.67999 16.4399-34.91998 31.6301-72.19 44.4001-108.60001 3.22-9.17999 10.3001-25.45001 10.8299-34.67001 0.1899-3.44-0.41-3.22-2.22-5.72m-512.99996 730.99994c6.97998 0.47998 17.45996-5.43006 23.96997-9.03003 3.40003-1.88001 6.19995-3.87 6.53003-8.06995 0.40003-5.06006-4.08996-17.31006-5.26001-23.14001-5.73999-28.64002-12.38-57.08997-18.31006-85.68994-16.41998-79.04004-34.20001-157.88001-51.20001-236.80002-9.61999-44.65997-20.78998-89.31-27.75-134.41998-4.04999-26.32001-11.84002-52.22004-17.71002-78.12-7.67999-33.88-14.69-68.03-22-102-1.15002-5.35001-4.51001-26.51999-7.53003-29.45001-3.40002-3.29001-26.92999 3.41-30.73999 5.72-1.41998 9.35001 5.35999 32.72 7.78998 43.20999 5.11999 22.04999 9.44 44.69 14.11999 66.88001 12.96003 61.48999 25.90003 122.97998 38.54999 184.47003 1.28998 6.25 3.64002 11.91998 4.96997 18.01001 12.97998 59.45001 26.03998 119.22995 38.15998 178.83993 10.57 52.01001 21.96997 103.96997 33.14001 155.85999 2.32001 10.77002 7.47003 47.67004 13.26996 53.72998m994.4599-452.37998c-6.45 0.39002-10.79 4.88001-13.5999 10.23999-8.6601 16.52002-5.6101 38.39002-0.2299 55.51001 1.6499 5.23999 5.76 13.70002 6.04 18.78003 0.1899 3.59003-0.9499 7.43-4.6401 8.78003-2.96 1.07001-5.6199-0.13-7.8101-2.15002-4.8398-4.46002-8.4099-13.82001-13.52-19.47998-13.0501-14.44-46.5999-31.15003-65.3001-20.90003-7.79 4.27002-10.7199 11.15998-11.27 19.72998-1.24 19.5 12.5601 34.46997 30.9002 38.84003 4.7099 1.13001 15.2199 1.77002 18.49 4.51001 3.6699 3.07001 3.31 7.77002-0.5601 10.47998-7.0701 4.94-27.51-2.46997-34.73-6.19-5.9302-3.04999-9.8901-7.73999-17.01-7.45001-9.96 0.40997-21.8601 3.96002-31.6201 6.28003-67.8699 16.09997-130.4199 56.68997-173.8201 111.17996-49.8999 62.65002-79.3398 143.30005-73.5898 224.03003 1.8799 26.34997 6.73 54.17004 15.99 79.01001 3.4299 9.19995 7.81 17.51001 11.5998 26.40002 3.44 8.04004 12.3001 26.80005 18.76 32.23999 2.01 1.68994 4.0601 2.14002 6.6201 2.38001 18.0101 1.76001 39.46 0.16003 57.8399 0.16003l117 0c111.8501 0 225.01 2.52002 336.6299-1.07996 11.3799-0.35998 57.99 2.55005 64.9699-1.31994 12.3702-6.83997 27.5301-54 31.1001-67.90003 22.3702-87.19995-1.1499-179.86999-39.81-258.58996-11.9199-24.28003-24.1201-47.34998-42.6699-67.32996-8.6599-9.32007-21.76-20.41003-32.0901-27.91003-5.5-4-38.69-23.94998-39.77-26.17996-2.5301-5.21998 7.54-17.46998 10.31-23.02002 7.03-14.15003 12.1001-34.53998 9.9299-50.27002-1.08-7.79999-4.84-16.26001-12.4899-19.51001-19.5901-8.29999-36.3999 15.16998-42.6299 30.59002-2.0901 5.15003-3.51 14.44001-6.52 18.47998-1.8001 2.44001-4.8501 4.09003-7.8401 2.73999-5.3101-2.40997-3.8899-10.48999-3.47-15.04998 0.4099-4.46997 0.48-9.03998 0.22-13.52002-1.1399-19.08002-11.97-44.68-26.7701-57.22998-9.4699-8.01001-21.7299-16.03998-34.6398-15.28003m-770.45946 90.37994c8.25-2.34997 15.43994-9.52002 22.44995-14.54999 6.85999-4.91998 48.24001-32.19 31.43991-41.34002-9.01998-4.90998-57.99996-13.39002-64.43991-6.83002-3.10998 3.16998 4.64002 49.01001 6.65003 55.61999 0.91003 2.96003 2.13 4.65003 3.90002 7.09998m-405 500.00003c-1.69-14.18994-7.95001-31.83997-12-46-7.92999-27.73999-15.84997-55.47998-23.78003-83.21997-12.42999-43.51001-24.53997-87.12-37.53997-130.45996-7.98999-26.63001-16.21003-57.33008-29.02002-81.97998-3.90998-7.53003-9.26001-13.92005-17.75-16.25-14.48999-3.97998-41.65998 5.43994-56.52002 9.29993-69.10999 17.98999-137.07001 41.52001-205.23999 62.76-17.19001 5.35999-63.09 18.42005-74.66999 30.33008-4.10998 4.23999-6.79001 10.85999-7.11999 16.70996-0.82999 14.92005 8.09 42.25 12.03 57.42005 10.35 39.75 22.66 79.03991 34.70001 118.29992 5.53 18.05005 10.73001 40.91004 18.13998 57.85999 1.10001 2.53003 2.51001 4.69995 5.07999 5.92004 5.07001 2.42005 18.63998 1.31006 24.69 1.31006l259.00003 0c33.44001 0 67.60999 1.08997 100.95001-0.05005 4.24-0.14001 5.33002-0.33996 9.04999-1.94995m458.26006-238.34997c-20.92009 0.04004-61.31999 22-81.71001 30.90002-74.93994 32.70996-149.75 66.29004-223.56 101.44006-15.65002 7.44996-31.46002 14.25-46.98999 22.01001-5.80999 2.90003-13.83001 6.09998-18.60998 10.39002-1.75 1.56006-3.34998 3.46997-3.59998 5.90002-0.21002 2 0.47998 3.67005 1.75 5.17005 6.71002 7.94995 38.69001 20.43005 49.45001 25.55005 44.93006 21.40002 90.31995 41.31994 136.05994 60.93994 24.47998 10.5 56.25 26.11002 82.31006 29.68992 8.89001 1.22 20.33997-1.52 28.72998-4.55 25.21997-9.12002 49.88001-22.50003 74.29007-33.70999 53.4101-24.55005 106.05-50.44995 158.9599-76.04004 26.5901-12.85999 53.06-25.86999 79.04-39.95996 8.6802-4.71997 21.9102-10.52002 29.21-16.79004 1.9799-1.69995 3.6601-3.84998 3.6601-6.58997 0-12.92004-79.8401-45.71997-93.8301-51.42004-38.54-15.72998-76.9399-31.53003-115.9699-46.03003-17.72-6.57995-40.3599-16.93994-59.1899-16.90002m264.3598 139.34985c-2.3101 0.06006-9.8101 5.01001-12.3001 6.31995-15.7399 8.26001-31.4201 16.72998-47.32 24.68005-61.96 30.97998-124.48 60.25-186.9899 90.01001-16.75 7.97998-33.51006 15.81995-50.31999 23.68003-22.72998 10.64-45.87 23.15-71.64002 22.26-20.53003-0.6999-44.68994-12.5899-63.76001-20.24-49.60998-19.88997-97.75-42.79-146.53998-64.45992-8.65002-3.84997-54.16998-27.5-59.42999-26.61999-4.22998 0.69995-5.5 5-6 8.68994-1.51001 11.13-0.17999 20.41003 9.77002 26.58996 6.08002 3.76001 13.15002 6.31995 19.57001 9.43006 12.14001 5.86999 24.14001 11.86999 36.33001 17.67004 42.81006 20.39002 85.81995 40.06011 129.55994 58.43991 24.16004 10.1501 66.29004 31.5501 91.84998 27.95 25.39001-3.5601 56.97998-21.32 80.27002-32.73 36.35991-17.8199 73.19001-36.15002 109.95001-53.05004 37.8599-17.39002 75.3799-37.62 112.71-56.29004 11.77-5.88001 23.3398-11.95996 35.01-17.98999 5.6198-2.90003 13.3799-5.84998 18.1198-9.88001 4.2601-3.60998 6.96-9.68994 7.9002-15.09997 1.1099-6.33997 2.6899-19.60999-6.74-19.35999m3.3799 50c-5.22 0.92004-12.3799 5.68994-17.6699 8.32996-15.73 7.86999-31.2901 16.15002-47 24-55.4302 27.73999-111.2 55.02002-166.99 82.00998-22.3001 10.7801-44.46005 21.69-66.96005 32.0401-25.56995 11.74-48.79004 25.28-78.09998 22.3399-20.11999-2.01-41.30005-12.5-59.98999-20.01-48.93005-19.66-95.91003-42.87-144.14001-63.85996-13.78998-6-27.68-13.10999-41.15003-19.84998-4.27002-2.13-13.19-7.56995-17.51001-8.11999-2.53003-0.32996-4.46002 0.59997-6 2.60998-5.73999 7.53003-2.45001 25.02002 5.65998 30.35999 7.47998 4.93006 17.70001 9.06996 25.84997 13.15006 21.25 10.62 42.78998 20.63 64.31 30.6899 36.20996 16.95 72.60998 33.13 109.53003 48.47 17.46997 7.25 37.34997 16.99 55.56006 21.4399 10.31994 2.52 20.18005 2.82 30.55005 0.35 19.97998-4.74 44.03003-18.13 62.71997-27.28 27.31991-13.3901 54.76011-26.4101 82.00001-40 43.6299-21.7701 87.46-43 131-65.00004 23.5401-11.91003 49.19-23.61999 71.5699-37.43005 2.9599-1.82996 5.82-4.40003 7.54-7.45996 4.02-7.14002 5.8401-21.30005-0.78-26.78003m0 47c-69.95 39.14001-143.3399 73.38998-215.3299 108.67008-26.6501 13.05-53.1 26.4499-79.97999 39.02-24.72998 11.5799-51.38001 27.25-79.5 25.12-23.48999-1.7901-56.41004-18.02-78.64002-27.36-64.06994-26.9201-127.36999-56.46-189.54999-87.45-5.79998 8.6401-8.20001 24.33-1.40002 33.4001 5.45001 7.25 38.58002 20.9399 48.39001 25.6099 45.24994 21.5501 90.46003 42.7 136.56 62.44 20.95996 8.97 43.07996 19.09 64.57996 26.42 7.52002 2.5601 16.96997 4.8101 24.92004 4.9101 9.37 0.13 20.70996-2.86 29.37-6.36 20.04004-8.07 39.57995-18.4201 58.91003-28.09 20.93998-10.4599 42.05998-20.52 62.99998-31 53.1001-26.55 106.77-52.06 159.3501-79.65 12.1198-6.36 51.51-23.54005 58.3498-32.65003 6.7-8.92005 6.9202-24.12 0.97-33.03003m0 50.99996c-23.5401 14.87-52.5401 27.7701-77.6699 40.33-42.94 21.47-85.8201 43.02-128.99 64.01-26.1853 12.7404-52.2992 25.6272-78.34006 38.6602-16.69995 8.3499-34.88 18.4-52.39001 24.6099-15.01001 5.33-28.52002 7.98-44.46997 5.25-22.18006-3.81-44.53003-15.0799-65.30005-23.6999-45.37-18.85-90.47998-39.0601-134.83002-60.17-8.27002-3.94-54.59997-27.86-59.71002-27.2-7.37 0.9399-6.53003 11.73-6.16998 17.08 0.40002 5.7399 2.05999 11.54 6.64001 15.3599 4.54999 3.82 12.76001 7.0401 18.22998 9.7701 13.64002 6.8199 27.22998 13.4599 40.98999 20.01 57.27997 27.28 115.00995 52.3 173.76996 76.23 16.78003 6.8299 33.68994 12.41 51.96997 8.4899 16.94995-3.63 33.81995-13.01 49.27002-20.7299 15.57996-7.7901 31.39002-15.2 46.99998-23 58.5899-29.3001 117.68-57.8901 175.68-88.32 19.0701-10 38.3301-19.49 57.3501-29.65 7.01-3.75 18.23-8.9 24.02-13.98 8.49-7.47 8.77-24.3299 2.95-33.05m211-371.00004c-6.02-3.11999-20.1802-11.65002-19.22-19.69995 0.4199-3.44006 3.54-6.51001 7.0798-6.41003 4.1202 0.10998 8.0901 4.65002 11.3201 6.93005 13.0401 9.20996 28.0999 11.77002 43.3599 6.71997 6.4201-2.12 12.74-4.73999 18.1201-8.88001 3.5601-2.72998 10.6699-10.43005 14.25-11.56005 3.46-1.08997 6.74 0.56005 8.0601 3.91003 1.53 3.89001 0.1198 7.53992-2.3401 10.62-4.95 6.16992-12.0201 11.32995-18.92 15.07995-4.1701 2.27002-14.4599 5.42005-16.7199 9.01001-2.0401 3.25 1.1198 15.06006 0.73 20.02002-1.5401 19.73999-17.6602 48.04004-41.1302 43.67004-8.55-1.59997-15.1799-7.85998-18.1198-15.88-7.19-19.55005 1.0998-38.5 13.53-53.53003m293 78c-1.22 6.34009-0.5501 12.23999-1.53 18.46997-2.45 15.44006-12.49 31.79004-27.69 37.31006-8.99 3.27002-18.0698 2.27002-25.3899-4.17004-12.1101-10.64002-12.47-28.76001-8.98-43.19996 2.8499-11.83007 11.1199-23.21997 20.5899-30.41003-7.44-8.20996-25.69-29.64001-22.22-41.26001 0.6502-2.17993 2.04-3.86999 4.19-4.66992 2.3801-0.89002 4.9201-0.44006 6.9899 0.96997 4.0801 2.79993 6.3702 10.81995 8.8201 15.17993 7.48 13.30005 21.1799 25.30005 35.6099 30.39002 5.9399 2.09997 12.4399 3.88 18.74 4.26001 7.02 0.41003 26.81-5.98999 26.25 6-0.5801 12.22998-27.18 9.55004-35.3799 11.13m-187.6299 35.53003c22.54-0.60999 47.03 7.59998 61.6299 25.46997 6.8401 8.38001 17.73 26.09998 14.24 37.23999-1.76 5.60999-8.02 6.70996-11.76 2.28003-2.67-3.16003-2.94-8.87-4.19-12.81006-3.05-9.57995-11.72-20.38-20.0998-25.90002-21.0701-13.90992-52.7-15.46997-73.47-0.08997-4.5801 3.38989-16.79 20.03992-21.6802 7.27991-1.1499-3.02002-0.28-5.92005 1.46-8.5 11.28-16.62 34.6999-24.43994 53.8701-24.96997" fill="#030202" fill-rule="evenodd"/></svg><svg x="15.601" y="4.975" width="154.467" height="92.69" viewBox="0 0 1834.334 1100.725" preserveAspectRatio="none" overflow="visible"><path d="M112.36176 0.22881c11.71997-1.41 19.55999 3.66 18.96997 16.22999-0.35999 7.42999-7.14002 18.14-1.04999 23.77001 3.25 3.00999 11.13 5.75999 15.39001 7.61 8.98999 3.91 18.59998 8 27.06 12.94 28.32001 16.56 32.26001 46.14 27.22998 76.05002-1.53003 9.07-3.56 19.94-7.90002 28.1-6.57001 12.35001-23.28003 15.10999-35.72004 11.23999-10.65997-3.32-21.07-10.86999-20.26-23.30999 1-15.16001 19.22998-27.51999 8.94-46.37-12.23999-22.39999-60.32001-12.39999-71.22003-45.78-3.09003-9.47-1.73999-18.73 2.40002-27.64 5.64001-12.11 22.19-31.16 36.15997-32.83999m1672.11007 319.20002c11.06-1.33999 47.1201 21.64002 49.6001 32.91001 0.54 2.44 0.2199 4.6-0.72 6.88-2.0701 5.04001-6.75 9.60001-9.5 14.5-8.29 14.78-14.77 32.10001-25.9399 45.06003-2.6202 3.03003-7.8799 7.40002-11.8899 8.10999-14.8601 2.63-45.8401-19.34003-49.3899-33.98999-0.8999-3.68-0.3999-6.96003 0.97-10.43 3.02-7.66 10.1899-16.11999 14.82-23.17999 6.1001-9.31 20.6399-38.47 32.0501-39.85999m-1762.92008 228.00004c5.33002-0.90003 55.16998 9.78002 59.59998 12.92993 6.03998 4.28003 8.59998 12.57007 9.38 19.61999 1.35999 12.21997-1.46002 49.48999-20.65002 47.46008-8.97998-0.94006-16.28003-7.32006-24.77002-10.04003-14.20001-4.53992-42.92999-2.16993-45.04001-21.93995-1.07001-10.02002 9.95001-46.08007 21.48001-48.03002m458.26972 86.25988c1.98999 4.16992 2.02002 2.63001 0 7-2.43-4.42004-2.43-2.58008 0-7m338.41003 217.5c8.78003-0.39001 17.53003 1.70996 25.91004 4.17993 18.28003 5.39002 36.88 13.38001 54.68994 20.31006 28.90002 11.25 57.5 22.95996 86.15002 34.84998 11.67005 4.84997 51.69999 20.13 58.36999 28.63 1.77 2.25 2.35 4.81995 1.4201 7.56995-0.9301 2.73999-3.3101 4.70996-5.6 6.31006-14.57 10.25-34.58 19.26001-50.68008 27.31994-27.40002 13.69996-54.76001 27.33994-82.32995 40.67004-33.06995 15.99-66.16004 31.88-99.32996 47.6701-18.04004 8.5999-36.81006 18.53-55.45996 25.54-11.33997 4.26-21.26001 6.91-33.53003 6.43-9.93994-0.39-19.29004-3.0899-28.63001-6.3699-16.72998-5.86-33.22998-13.48-49.54003-20.46-33.72999-14.4301-66.91004-29.46-100.22999-44.77-9.80999-4.51-41.70001-17.2901-47.34002-24.6501-1.34998-1.77-1.84998-3.66-1.16999-5.82991 1.82001-5.73999 22.03003-15.08997 27.90003-17.89002 68.51001-32.60998 137.82996-63.10998 207.23999-93.76001 13.88-6.14001 27.82996-12.13 41.68994-18.31005 14.18994-6.33997 35.07996-16.75 50.46997-17.43995" fill="#FB7D6F" fill-rule="evenodd"/></svg><svg x="1.107" y="0" width="132.946" height="83.6" viewBox="0 0 1578.774 992.768" preserveAspectRatio="none" overflow="visible"><path d="M710.39514 0.21821c6.56006-0.59 16.42005-0.26 21.56995 4.53 5.13 4.8 4.76001 15.09 6.39001 21.61 1.77002 7.09 5.41004 14.25 10.37 19.63 3.71997 4.03 11.78003 9.9 11.60998 15.67-0.33996 12-27.68994 27.38001-38.93994 25.56999-25.84009-4.16-51.14001-39.04-51.11999-64.51 0.02002-17.08 27.13-21.33 40.11999-22.5m421.95996 78.35c12.51-0.50999 41.87 15.82001 43.1801 29.44 1.9499 20.16999-24.8101 60.87-46.73 61.62-4.9201 0.16999-9.36 0.06-14.0301-1.69-9.64-3.58999-27.9799-20.08002-29.3399-30.57001-1.53-11.85001 18.53-18.48 25.67-26.44001 5.94-6.61 8.38-13.66999 11.12-21.88 1.58-4.74001 4.3101-10.24001 10.13-10.48m-554.41001 111.20004c-6.96008 2.10998-3.48999 16.13-4.54004 22.45999-1.90991 11.64002-8.82995 18.07001-14.36999 27.63001-5.06995 8.79-6.70996 17.89999-7.08997 27.91-16.46997-4.34-27.81006-22.29999-27.83008-39-0.02002-16.78 11.23999-34.63001 27.83008-39 2.28992 8.26001 3.72998 15.41 0.77002 23.76999-4 11.25-27.5 31.42999-14.77002 43.23001 2.52002-6.12 3.18994-12.60999 6.38001-18.62 2.51001-4.72 6.11999-8.48999 9.16992-12.82998 9.06006-12.93 8.55005-22.88001 4.45007-37.54999 6.95996-1.10001 14-1.39002 20 2m1 0c17.18994 3.07999 28.48999 21.36002 28.94995 38.04001 0.44007 16.06-9.19995 33.82001-24.94995 38.95999 2.13001-5.64002 3.59998-11.42999 6.05994-16.94 5.31006-11.84 20.34997-34.85001 7.94006-46.06-2.97998 6.89001-1.38 13.45999-3.25 20.75-2.53003 9.92001-8.93005 17.97-12.35998 27.63998-1.07007 3.01001-3.92005 15.51001-5.60999 16.78-2.96997 2.22-10.92004 1.92002-14.5 1.54999-4.28003-0.42999-4.90002-0.67001-8.28003-2.72 8.37-6.20001 5.33997-11.84 9.38001-20.62 2.53002-5.48001 6.56994-10.11999 9.78002-15.22 8.53992-13.54001 10.42994-26.6 6.83997-42.16m-555.41995 69.58002c7.26999-1.01001 15.26999-1.14002 21.45999 3.38 15.85001 11.60001 2.54999 34.64999 24.42999 47.57001 18.29001 10.79001 49.12 9.83999 70.13001 12.86999 37.1 5.34 78.67001 34.29001 83.04001 73.95999 1.78997 16.25-5.28003 28.07999-22.72998 28.54999-12.4 0.34-25.23002-1.39001-34.96-9.85998-5.86999-5.12-8.51999-13.79001-11.13-20.87-5.04001-13.64999-11.82999-24.86999-24.92999-32.07001-14.53-7.98999-32.94001-5.76-48.87-6.13-42.98001-1-74.22-14.89001-79.56-61.44-2.04999-17.86002 3.38-33.18 23.12-35.95999m604.41992 162.41998c-5.46008-8.35001-10.82007-26.45001-14.39001-36.60999-7.15003-20.41-14.79004-40.26999-20.93006-61.07-3.90991-13.28-6.55993-27.25-10.67993-40.32001 4.19995-1.92999 10.34998-5.41 14.41992-1.41 3.41004 3.35 6.59998 24.33999 7.84998 30.13998 7.81006 36.26001 14.83008 73.34003 23.7301 109.27002m-52-137c9.90991 59.29001 38.64002 112.10001 53.39002 169.60998 6.82995 26.60999 7.80993 53 9.79992 80.19999 2.27002 30.84997 5.56006 62.65002 12.08008 92.91998 3.59998 16.71002 7.38 33.53003 15.06995 48.92999 7.53003 15.04999 18.63 29.25 23.66003 45.34003-0.28003-7.09003-2.34009-13.03998-3-20 3.58997 7.81 4.58997 17.09003 6.44995 25.54999 4.03003 18.36999 7.85999 36.78997 11.82007 55.17999 8.62 40.01001 17.38 79.98999 26 120 4.30005 19.98999 9.95996 41.15002 12.72998 61.27002-6.68005-9.04004-10.05005-21.65003-13.63-32.37-14.51001-43.53003-21.88001-90.66003-27.92005-136.08001-1.54993-11.66999-1.38-37.96003-7.44995-46.54999-4.71008 7.28998-0.77002 22.46002-0.13 31.13 2.78991 37.21997 20.44995 176.58997 52.13 195.87-8.81006 8.01001-21.30005 11.76001-32 17-5.64001-8.43994-6.46997-19.58997-8.48999-29.51001-2.79004-13.77002-5.98999-27.46997-8.75-41.25-6.73999-33.54999-14.28003-67.04999-21.48999-100.51001-5.42004-25.15003-10.09009-50.78998-16.27002-75.72998 1.45996 1.64001 2.97998 3.78003 4 5 1.01001-1.16998 1.64002-0.69 2.30994-2.67999 1.98999-5.87-2.03003-33.84998-3.81995-40.81-1.97998-7.73999-3.30005-11.91998-11.48999-13.51001 0.96997 6.40997 4.55994 11.15997 5.98999 18.01001 2.22998 10.63 1.97998 21.47998 4.01001 31.98999-3.73999-6.15997-4.39001-14.76001-6-22-3.53003-15.87-6.96997-31.84003-10.23999-47.76001-3.01001-14.59998-6.01001-29.22998-9.21008-43.78998-2.01001-9.16998-5.03003-19.66998-6.01001-28.90002-0.66992-6.31 1.08008-13.23999 1.38-19.63001 0.47998-10.65002-0.34997-23.03998-1.10998-33.72998-4.89002-68.49997-21.71997-148.88998-54.80994-209.18997l2 11c-0.29004-0.38001-1.04004-0.07001-1.70007-1.29999-1.82996-3.36999-12.07996-53.89001-11.62-57.57001 0.71997-5.73001 7.93006-5.73001 12.32007-6.13m101 459.99997c-1.27002 11.90997 2.66992 31.40002 4.04993 43.95001 5.39001 48.92999 15.46997 92.21002 28.50012 139.5 5.23999 19.01996 10.09997 38.96002 16.44995 57.54999 2.92004-1.72998 4.16003-1.47998 4.17004-5.77002 0-4.71997-2.93005-12.38001-4.28002-17.12-3.56006-12.43994-7.10999-24.89001-10.67005-37.33001-11.29004-39.52997-22.36999-79.5-26.47998-120.52002-1.13-11.31-3.34997-50.35999-8.71997-58.27997-1.34998-1.97998-1.62-1.06-3.02002-1.97998m875.17991-444.27997c16.44 0.48001 26.27 18.38001 26.64 33.37 0.13 5.01998-1.1999 10.26998-4.75 13.98001-6.15 6.45001-18.26 7.48999-26.62 9.38-18.04 4.07999-40.25 11.85999-51.9699 27.03-8.6 11.13-9.61 24.36002-7.9101 37.95001 0.62 4.91001 2.36 11.29999 1.71 16.11002-1.79 13.15002-21.17 18.40997-32.3199 18.40997-26.35 0.02002-29.5101-18.42999-29.94-40.97-0.43-22.5 8.58-50.13998 24.25-66.70999 23.98-25.38001 64.95-49.59 100.91-48.54999m-976.18001 50.27997c24.03003 52.01999 37.44995 113.71002 44.53992 170.45999 1.39001 11.09003 2.67004 22.52002 3.33008 33.66998 0.41992 7.18-0.01001 13.66999 1.13 20.87-3.75-6.17999-4.72998-15.41998-6.23999-22.76001-2.61999-12.65997-5.31006-25.34003-8.03003-37.96997-8.33008-38.70999-16.66003-77.43997-24.82007-116.17996-3.21997-15.26999-8.45996-32.82001-9.90991-48.09m67 147.99997c4 6.58002 4.68994 16.00998 6.23999 23.75998 2.26001 11.31 4.88001 22.53003 7.16992 33.83002 9.58008 47.11999 20.02002 94.5 30.59009 141.40997-3.98999-4.65997-6.82007-10.65997-9.91003-16.09003-29.90003-52.42999-27.02002-124.58996-34.08997-182.90994" fill="#F1C474" fill-rule="evenodd"/></svg><svg x="114.116" y="48.653" width="54.273" height="46.526" viewBox="0 0 644.513 552.512" preserveAspectRatio="none" overflow="visible"><path d="M419.92358 0c0.32007 0.44 1.06006 0.54999 1.58008 1.41998 2.47998 4.17999 4.22998 11.81 5.41992 16.58002-0.28003-0.41998-1.07006-0.51001-1.55004-1.45001-0.70997-1.39001-1.25-4.47998-1.83008-6.16999-0.8501-2.46997-2.84009-5.48999-3.40992-7.59002-0.25-0.92999-0.04003-1.92999-0.20996-2.78998m-68 56c-5.13 2.91998-7.91003 4.69-13.90002 1.90002-8.82996-4.13-23.16003-24.31-31.93005-32.07-7.90003-6.98999-17.64002-11.28998-25.17005-17.83002 20.17005-4.71002 47.18006 13.28998 58.55005 29.45001 4.66003 6.64001 5.65003 14.16998 12.44995 18.54999m185.00012 495c3.59009-6.90002 9.30005-12.73999 13.79004-19.20996 9.46997-13.69995 18.75-28.26001 25.44995-43.55005 30.3899-69.18005 32.03003-151.08997 13.14991-223.63-8.65992-33.32001-21.92994-65.63001-36.05005-96.95002-4.30005-9.54998-14.45996-18-18.34009-26.65997 6.8501 0.65002 18.05005 13.37 22.8999 19.09998 16.90991 19.90002 27.80005 40.40997 39.32007 63.67999 19.73999 39.86999 35.55005 80.48999 42.18994 124.81 8.87012 59.26001 8.56006 123.18005-18.73999 178.07995-2.84009 5.69995-9.91992 19.60999-14.78003 23.21997-5 3.72998-60.80005 2.89002-68.88989 1.10999m-504.5-269.5c25.42004-2.85999 74.05005 7.32001 77.78003 39.04999 2.18994 18.58001-16.57996 29.39001-32.53003 31.20001-24.18005 2.73999-73.46997-8.03003-77.43005-38.07001-2.54004-19.17999 15.26001-30.28998 32.18005-32.17999m385 97c24.59009-2.76001 74.61011 6.11999 78.90991 36.98999 2.84009 20.38-19.62988 32.41003-36.81006 34.10998-25.70996 2.54004-74.51001-6.03003-79.04004-38.10998-2.79003-19.76001 20.61011-31.16004 36.93995-32.98999" fill="#D5403A" fill-rule="evenodd"/></svg><svg x="79.086" y="47.323" width="6.073" height="5.54" viewBox="0 0 72.114 65.792" preserveAspectRatio="none" overflow="visible"><path d="M4.69727 0.57727c9.93005-2.16998 66.07996 1.59003 67.39001 14.47998 0.85999 8.46997-19.66003 25.07001-26.20996 29.70001-4.98999 3.53998-26.30005 20.45001-30.41003 20.98999-2.93994 0.39002-5.02002-1.83002-6.30005-4.20001-2.48999-4.65002-10.16003-51.63-9.06006-56.28003 0.51001-2.14001 2.40002-4.21002 4.58996-4.69" fill="#4271A9" fill-rule="evenodd"/></svg></g></g></svg>
